<?xml version="1.0" encoding="utf-8"?>
<!-- Generated by Mocodo 4.3.2 -->
<svg width="633" height="682" viewBox="0 0 633 682" xmlns="http://www.w3.org/2000/svg">
<rect x="0" y="0" width="633" height="682" fill="#f7f7f7" stroke="none" stroke-width="0"/>

<!-- Association ABRITE -->
<g>
	<line x1="334" y1="169" x2="334" y2="51" stroke="#5aae61" stroke-width="2"/>
	<line x1="185" y1="51" x2="334" y2="51" stroke="#5aae61" stroke-width="2"/>
	<g>
		<path d="M346 26 a14 14 90 0 1 14 14 V51 h-52 V40 a14 14 90 0 1 14 -14" fill="#a6dba0" stroke="#a6dba0" stroke-width="0"/>
		<path d="M360 51 v11 a14 14 90 0 1 -14 14 H322 a14 14 90 0 1 -14 -14 V51 H52" fill="#d9f0d3" stroke="#d9f0d3" stroke-width="0"/>
		<rect x="308" y="26" width="52" height="50" fill="none" rx="14" stroke="#5aae61" stroke-width="2"/>
		<line x1="308" y1="51" x2="360" y2="51" stroke="#5aae61" stroke-width="1"/>
		<text x="316" y="43.75" fill="#000000" font-family="Verdana" font-size="12">Abrite</text>
	</g>
	<text x="339" y="93" fill="#762a83" font-family="Verdana" font-size="12">1,1</text>
	<text x="227" y="68" fill="#762a83" font-family="Verdana" font-size="12">1,N</text>
</g>

<!-- Association CONFIGURE -->
<g>
	<line x1="334" y1="169" x2="185" y2="169" stroke="#5aae61" stroke-width="2"/>
	<line x1="56" y1="169" x2="185" y2="169" stroke="#5aae61" stroke-width="2"/>
	<g>
		<path d="M208 144 a14 14 90 0 1 14 14 V169 h-74 V158 a14 14 90 0 1 14 -14" fill="#a6dba0" stroke="#a6dba0" stroke-width="0"/>
		<path d="M222 169 v11 a14 14 90 0 1 -14 14 H162 a14 14 90 0 1 -14 -14 V169 H74" fill="#d9f0d3" stroke="#d9f0d3" stroke-width="0"/>
		<rect x="148" y="144" width="74" height="50" fill="none" rx="14" stroke="#5aae61" stroke-width="2"/>
		<line x1="148" y1="169" x2="222" y2="169" stroke="#5aae61" stroke-width="1"/>
		<text x="156" y="161.75" fill="#000000" font-family="Verdana" font-size="12">Configure</text>
	</g>
	<text x="272" y="161" fill="#762a83" font-family="Verdana" font-size="12">1,1</text>
	<text x="108" y="186" fill="#762a83" font-family="Verdana" font-size="12">0,N</text>
</g>

<!-- Association POSSEDE -->
<g>
	<line x1="334" y1="169" x2="458" y2="169" stroke="#5aae61" stroke-width="2"/>
	<line x1="573" y1="169" x2="458" y2="169" stroke="#5aae61" stroke-width="2"/>
	<g>
		<path d="M476 144 a14 14 90 0 1 14 14 V169 h-64 V158 a14 14 90 0 1 14 -14" fill="#a6dba0" stroke="#a6dba0" stroke-width="0"/>
		<path d="M490 169 v11 a14 14 90 0 1 -14 14 H440 a14 14 90 0 1 -14 -14 V169 H64" fill="#d9f0d3" stroke="#d9f0d3" stroke-width="0"/>
		<rect x="426" y="144" width="64" height="50" fill="none" rx="14" stroke="#5aae61" stroke-width="2"/>
		<line x1="426" y1="169" x2="490" y2="169" stroke="#5aae61" stroke-width="1"/>
		<text x="433" y="161.75" fill="#000000" font-family="Verdana" font-size="12">Possede</text>
	</g>
	<text x="375" y="186" fill="#762a83" font-family="Verdana" font-size="12">1,1</text>
	<text x="495" y="161" fill="#762a83" font-family="Verdana" font-size="12">0,N</text>
</g>

<!-- Association PLACER -->
<g>
	<line x1="185" y1="413" x2="56" y2="287" stroke="#5aae61" stroke-width="2"/>
	<line x1="334" y1="413" x2="56" y2="287" stroke="#5aae61" stroke-width="2"/>
	<line x1="334" y1="169" x2="56" y2="287" stroke="#5aae61" stroke-width="2"/>
	<g>
		<path d="M73 253 a14 14 90 0 1 14 14 V278 h-62 V267 a14 14 90 0 1 14 -14" fill="#a6dba0" stroke="#a6dba0" stroke-width="0"/>
		<path d="M87 278 v29 a14 14 90 0 1 -14 14 H39 a14 14 90 0 1 -14 -14 V278 H62" fill="#d9f0d3" stroke="#d9f0d3" stroke-width="0"/>
		<rect x="25" y="253" width="62" height="68" fill="none" rx="14" stroke="#5aae61" stroke-width="2"/>
		<line x1="25" y1="278" x2="87" y2="278" stroke="#5aae61" stroke-width="1"/>
		<text x="38" y="270.75" fill="#000000" font-family="Verdana" font-size="12">Placer</text>
		<text x="32" y="295.8" fill="#000000" font-family="Verdana" font-size="12">place_x</text>
		<text x="32" y="312.8" fill="#000000" font-family="Verdana" font-size="12">place_y</text>
	</g>
	<text x="100" y="366.4" fill="#762a83" font-family="Verdana" font-size="12">0,N</text>
	<text x="261" y="405.6" fill="#762a83" font-family="Verdana" font-size="12">0,N</text>
	<text x="271" y="179.61" fill="#762a83" font-family="Verdana" font-size="12">0,N</text>
</g>

<!-- Association SE_DEROULE -->
<g>
	<line x1="334" y1="413" x2="185" y2="287" stroke="#5aae61" stroke-width="2"/>
	<line x1="334" y1="169" x2="185" y2="287" stroke="#5aae61" stroke-width="2"/>
	<g>
		<path d="M211 262 a14 14 90 0 1 14 14 V287 h-80 V276 a14 14 90 0 1 14 -14" fill="#a6dba0" stroke="#a6dba0" stroke-width="0"/>
		<path d="M225 287 v11 a14 14 90 0 1 -14 14 H159 a14 14 90 0 1 -14 -14 V287 H80" fill="#d9f0d3" stroke="#d9f0d3" stroke-width="0"/>
		<rect x="145" y="262" width="80" height="50" fill="none" rx="14" stroke="#5aae61" stroke-width="2"/>
		<line x1="145" y1="287" x2="225" y2="287" stroke="#5aae61" stroke-width="1"/>
		<text x="152" y="279.75" fill="#000000" font-family="Verdana" font-size="12">Se deroule</text>
	</g>
	<text x="261" y="384.86" fill="#762a83" font-family="Verdana" font-size="12">0,N</text>
	<text x="271" y="195.43" fill="#762a83" font-family="Verdana" font-size="12">0,N</text>
</g>

<!-- Association SURVEILLE -->
<g>
	<line x1="458" y1="413" x2="334" y2="287" stroke="#5aae61" stroke-width="2"/>
	<line x1="334" y1="413" x2="334" y2="287" stroke="#5aae61" stroke-width="2"/>
	<line x1="334" y1="169" x2="334" y2="287" stroke="#5aae61" stroke-width="2"/>
	<g>
		<path d="M354 262 a14 14 90 0 1 14 14 V287 h-68 V276 a14 14 90 0 1 14 -14" fill="#a6dba0" stroke="#a6dba0" stroke-width="0"/>
		<path d="M368 287 v11 a14 14 90 0 1 -14 14 H314 a14 14 90 0 1 -14 -14 V287 H68" fill="#d9f0d3" stroke="#d9f0d3" stroke-width="0"/>
		<rect x="300" y="262" width="68" height="50" fill="none" rx="14" stroke="#5aae61" stroke-width="2"/>
		<line x1="300" y1="287" x2="368" y2="287" stroke="#5aae61" stroke-width="1"/>
		<text x="308" y="279.75" fill="#000000" font-family="Verdana" font-size="12">Surveille</text>
	</g>
	<text x="385" y="376.27" fill="#762a83" font-family="Verdana" font-size="12">0,N</text>
	<text x="339" y="346" fill="#762a83" font-family="Verdana" font-size="12">0,N</text>
	<text x="339" y="254" fill="#762a83" font-family="Verdana" font-size="12">0,N</text>
</g>

<!-- Association COMPREND -->
<g>
	<line x1="334" y1="631" x2="458" y2="287" stroke="#5aae61" stroke-width="2"/>
	<line x1="573" y1="169" x2="458" y2="287" stroke="#5aae61" stroke-width="2"/>
	<g>
		<path d="M483 262 a14 14 90 0 1 14 14 V287 h-78 V276 a14 14 90 0 1 14 -14" fill="#a6dba0" stroke="#a6dba0" stroke-width="0"/>
		<path d="M497 287 v11 a14 14 90 0 1 -14 14 H433 a14 14 90 0 1 -14 -14 V287 H78" fill="#d9f0d3" stroke="#d9f0d3" stroke-width="0"/>
		<rect x="419" y="262" width="78" height="50" fill="none" rx="14" stroke="#5aae61" stroke-width="2"/>
		<line x1="419" y1="287" x2="497" y2="287" stroke="#5aae61" stroke-width="1"/>
		<text x="427" y="279.75" fill="#000000" font-family="Verdana" font-size="12">Comprend</text>
	</g>
	<text x="325.96" y="581" fill="#762a83" font-family="Verdana" font-size="12">1,1</text>
	<text x="537.92" y="220" fill="#762a83" font-family="Verdana" font-size="12">0,N</text>
</g>

<!-- Association REGROUPE -->
<g>
	<line x1="185" y1="413" x2="56" y2="539" stroke="#5aae61" stroke-width="2"/>
	<line x1="56" y1="631" x2="56" y2="539" stroke="#5aae61" stroke-width="2"/>
	<g>
		<path d="M79 514 a14 14 90 0 1 14 14 V539 h-74 V528 a14 14 90 0 1 14 -14" fill="#a6dba0" stroke="#a6dba0" stroke-width="0"/>
		<path d="M93 539 v11 a14 14 90 0 1 -14 14 H33 a14 14 90 0 1 -14 -14 V539 H74" fill="#d9f0d3" stroke="#d9f0d3" stroke-width="0"/>
		<rect x="19" y="514" width="74" height="50" fill="none" rx="14" stroke="#5aae61" stroke-width="2"/>
		<line x1="19" y1="539" x2="93" y2="539" stroke="#5aae61" stroke-width="1"/>
		<text x="27" y="531.75" fill="#000000" font-family="Verdana" font-size="12">Regroupe</text>
	</g>
	<text x="101" y="468.6" fill="#762a83" font-family="Verdana" font-size="12">1,1</text>
	<text x="29" y="589" fill="#762a83" font-family="Verdana" font-size="12">1,N</text>
</g>

<!-- Association CONCERNE_GROUPE -->
<g>
	<line x1="334" y1="413" x2="185" y2="539" stroke="#5aae61" stroke-width="2"/>
	<line x1="56" y1="631" x2="185" y2="539" stroke="#5aae61" stroke-width="2"/>
	<g>
		<path d="M231 514 a14 14 90 0 1 14 14 V539 h-120 V528 a14 14 90 0 1 14 -14" fill="#a6dba0" stroke="#a6dba0" stroke-width="0"/>
		<path d="M245 539 v11 a14 14 90 0 1 -14 14 H139 a14 14 90 0 1 -14 -14 V539 H120" fill="#d9f0d3" stroke="#d9f0d3" stroke-width="0"/>
		<rect x="125" y="514" width="120" height="50" fill="none" rx="14" stroke="#5aae61" stroke-width="2"/>
		<line x1="125" y1="539" x2="245" y2="539" stroke="#5aae61" stroke-width="1"/>
		<text x="132" y="531.75" fill="#000000" font-family="Verdana" font-size="12">Concerne Groupe</text>
	</g>
	<text x="261" y="450.14" fill="#762a83" font-family="Verdana" font-size="12">0,N</text>
	<text x="105" y="611.2" fill="#762a83" font-family="Verdana" font-size="12">0,N</text>
</g>

<!-- Association CONCERNE_PROMO -->
<g>
	<line x1="334" y1="413" x2="334" y2="539" stroke="#5aae61" stroke-width="2"/>
	<line x1="334" y1="631" x2="334" y2="539" stroke="#5aae61" stroke-width="2"/>
	<g>
		<path d="M377 514 a14 14 90 0 1 14 14 V539 h-114 V528 a14 14 90 0 1 14 -14" fill="#a6dba0" stroke="#a6dba0" stroke-width="0"/>
		<path d="M391 539 v11 a14 14 90 0 1 -14 14 H291 a14 14 90 0 1 -14 -14 V539 H114" fill="#d9f0d3" stroke="#d9f0d3" stroke-width="0"/>
		<rect x="277" y="514" width="114" height="50" fill="none" rx="14" stroke="#5aae61" stroke-width="2"/>
		<line x1="277" y1="539" x2="391" y2="539" stroke="#5aae61" stroke-width="1"/>
		<text x="284" y="531.75" fill="#000000" font-family="Verdana" font-size="12">Concerne Promo</text>
	</g>
	<text x="339" y="489" fill="#762a83" font-family="Verdana" font-size="12">0,N</text>
	<text x="307" y="581" fill="#762a83" font-family="Verdana" font-size="12">0,N</text>
</g>

<!-- Association EVALUE -->
<g>
	<line x1="334" y1="413" x2="458" y2="539" stroke="#5aae61" stroke-width="2"/>
	<line x1="573" y1="631" x2="458" y2="539" stroke="#5aae61" stroke-width="2"/>
	<g>
		<path d="M472 514 a14 14 90 0 1 14 14 V539 h-56 V528 a14 14 90 0 1 14 -14" fill="#a6dba0" stroke="#a6dba0" stroke-width="0"/>
		<path d="M486 539 v11 a14 14 90 0 1 -14 14 H444 a14 14 90 0 1 -14 -14 V539 H56" fill="#d9f0d3" stroke="#d9f0d3" stroke-width="0"/>
		<rect x="430" y="514" width="56" height="50" fill="none" rx="14" stroke="#5aae61" stroke-width="2"/>
		<line x1="430" y1="539" x2="486" y2="539" stroke="#5aae61" stroke-width="1"/>
		<text x="438" y="531.75" fill="#000000" font-family="Verdana" font-size="12">Evalue</text>
	</g>
	<text x="385" y="458.73" fill="#762a83" font-family="Verdana" font-size="12">1,1</text>
	<text x="511" y="614.03" fill="#762a83" font-family="Verdana" font-size="12">0,N</text>
</g>

<!-- Association ENSEIGNE -->
<g>
	<line x1="573" y1="631" x2="573" y2="539" stroke="#5aae61" stroke-width="2"/>
	<line x1="458" y1="413" x2="573" y2="539" stroke="#5aae61" stroke-width="2"/>
	<g>
		<path d="M594 514 a14 14 90 0 1 14 14 V539 h-70 V528 a14 14 90 0 1 14 -14" fill="#a6dba0" stroke="#a6dba0" stroke-width="0"/>
		<path d="M608 539 v11 a14 14 90 0 1 -14 14 H552 a14 14 90 0 1 -14 -14 V539 H70" fill="#d9f0d3" stroke="#d9f0d3" stroke-width="0"/>
		<rect x="538" y="514" width="70" height="50" fill="none" rx="14" stroke="#5aae61" stroke-width="2"/>
		<line x1="538" y1="539" x2="608" y2="539" stroke="#5aae61" stroke-width="1"/>
		<text x="546" y="531.75" fill="#000000" font-family="Verdana" font-size="12">Enseigne</text>
	</g>
	<text x="578" y="589" fill="#762a83" font-family="Verdana" font-size="12">0,N</text>
	<text x="509" y="462.02" fill="#762a83" font-family="Verdana" font-size="12">0,N</text>
</g>

<!-- Association DIVISE -->
<g>
	<line x1="56" y1="631" x2="185" y2="631" stroke="#5aae61" stroke-width="2"/>
	<line x1="334" y1="631" x2="185" y2="631" stroke="#5aae61" stroke-width="2"/>
	<g>
		<path d="M197 606 a14 14 90 0 1 14 14 V631 h-52 V620 a14 14 90 0 1 14 -14" fill="#a6dba0" stroke="#a6dba0" stroke-width="0"/>
		<path d="M211 631 v11 a14 14 90 0 1 -14 14 H173 a14 14 90 0 1 -14 -14 V631 H52" fill="#d9f0d3" stroke="#d9f0d3" stroke-width="0"/>
		<rect x="159" y="606" width="52" height="50" fill="none" rx="14" stroke="#5aae61" stroke-width="2"/>
		<line x1="159" y1="631" x2="211" y2="631" stroke="#5aae61" stroke-width="1"/>
		<text x="167" y="623.75" fill="#000000" font-family="Verdana" font-size="12">Divise</text>
	</g>
	<text x="105" y="648" fill="#762a83" font-family="Verdana" font-size="12">1,1</text>
	<text x="263" y="648" fill="#762a83" font-family="Verdana" font-size="12">1,N</text>
</g>

<!-- Association PROPOSE -->
<g>
	<line x1="573" y1="631" x2="458" y2="631" stroke="#5aae61" stroke-width="2"/>
	<line x1="334" y1="631" x2="458" y2="631" stroke="#5aae61" stroke-width="2"/>
	<g>
		<path d="M476 606 a14 14 90 0 1 14 14 V631 h-64 V620 a14 14 90 0 1 14 -14" fill="#a6dba0" stroke="#a6dba0" stroke-width="0"/>
		<path d="M490 631 v11 a14 14 90 0 1 -14 14 H440 a14 14 90 0 1 -14 -14 V631 H64" fill="#d9f0d3" stroke="#d9f0d3" stroke-width="0"/>
		<rect x="426" y="606" width="64" height="50" fill="none" rx="14" stroke="#5aae61" stroke-width="2"/>
		<line x1="426" y1="631" x2="490" y2="631" stroke="#5aae61" stroke-width="1"/>
		<text x="434" y="623.75" fill="#000000" font-family="Verdana" font-size="12">Propose</text>
	</g>
	<text x="512" y="648" fill="#762a83" font-family="Verdana" font-size="12">1,1</text>
	<text x="383" y="648" fill="#762a83" font-family="Verdana" font-size="12">1,N</text>
</g>

<!-- Entity BATIMENT -->
<g>
	<g>
		<rect x="148" y="9" width="74" height="25" fill="#c2a5cf" stroke="none" stroke-width="0" opacity="1"/>
		<rect x="148" y="34" width="74" height="59" fill="#e7d4e8" stroke="none" stroke-width="0" opacity="1"/>
		<rect x="148" y="9" width="74" height="84" fill="none" stroke="#9970ab" stroke-width="2" opacity="1"/>
		<line x1="148" y1="34" x2="222" y2="34" stroke="#9970ab" stroke-width="1"/>
	</g>
	<text x="153" y="26.75" fill="#000000" font-family="Verdana" font-size="12">BATIMENT</text>
	<text x="153" y="51.8" fill="#000000" font-family="Verdana" font-size="12">id_bat</text>
	<line x1="153" y1="54" x2="192" y2="54" stroke="#000000" stroke-width="1"/>
	<text x="153" y="68.8" fill="#000000" font-family="Verdana" font-size="12">nom_bat</text>
	<text x="153" y="85.8" fill="#000000" font-family="Verdana" font-size="12">ad_bat</text>
</g>

<!-- Entity PLAN -->
<g>
	<g>
		<rect x="9" y="127" width="94" height="25" fill="#c2a5cf" stroke="none" stroke-width="0" opacity="1"/>
		<rect x="9" y="152" width="94" height="59" fill="#e7d4e8" stroke="none" stroke-width="0" opacity="1"/>
		<rect x="9" y="127" width="94" height="84" fill="none" stroke="#9970ab" stroke-width="2" opacity="1"/>
		<line x1="9" y1="152" x2="103" y2="152" stroke="#9970ab" stroke-width="1"/>
	</g>
	<text x="40" y="144.75" fill="#000000" font-family="Verdana" font-size="12">PLAN</text>
	<text x="14" y="169.8" fill="#000000" font-family="Verdana" font-size="12">id_plan</text>
	<line x1="14" y1="172" x2="59" y2="172" stroke="#000000" stroke-width="1"/>
	<text x="14" y="186.8" fill="#000000" font-family="Verdana" font-size="12">donnee</text>
	<text x="14" y="203.8" fill="#000000" font-family="Verdana" font-size="12">capacite_max</text>
</g>

<!-- Entity SALLE -->
<g>
	<g>
		<rect x="298" y="101" width="72" height="25" fill="#c2a5cf" stroke="none" stroke-width="0" opacity="1"/>
		<rect x="298" y="126" width="72" height="111" fill="#e7d4e8" stroke="none" stroke-width="0" opacity="1"/>
		<rect x="298" y="101" width="72" height="136" fill="none" stroke="#9970ab" stroke-width="2" opacity="1"/>
		<line x1="298" y1="126" x2="370" y2="126" stroke="#9970ab" stroke-width="1"/>
	</g>
	<text x="315" y="118.75" fill="#000000" font-family="Verdana" font-size="12">SALLE</text>
	<text x="303" y="143.8" fill="#000000" font-family="Verdana" font-size="12">id_salle</text>
	<line x1="303" y1="146" x2="350" y2="146" stroke="#000000" stroke-width="1"/>
	<text x="303" y="160.8" fill="#000000" font-family="Verdana" font-size="12">nom_salle</text>
	<text x="303" y="177.8" fill="#000000" font-family="Verdana" font-size="12">etage</text>
	<text x="303" y="194.8" fill="#000000" font-family="Verdana" font-size="12">capacite</text>
	<text x="303" y="211.8" fill="#000000" font-family="Verdana" font-size="12">intercal</text>
	<text x="303" y="228.8" fill="#000000" font-family="Verdana" font-size="12">type_salle</text>
</g>

<!-- Entity DEPARTEMENT -->
<g>
	<g>
		<rect x="522" y="135" width="102" height="25" fill="#c2a5cf" stroke="none" stroke-width="0" opacity="1"/>
		<rect x="522" y="160" width="102" height="43" fill="#e7d4e8" stroke="none" stroke-width="0" opacity="1"/>
		<rect x="522" y="135" width="102" height="68" fill="none" stroke="#9970ab" stroke-width="2" opacity="1"/>
		<line x1="522" y1="160" x2="624" y2="160" stroke="#9970ab" stroke-width="1"/>
	</g>
	<text x="528" y="152.75" fill="#000000" font-family="Verdana" font-size="12">DEPARTEMENT</text>
	<text x="527" y="177.8" fill="#000000" font-family="Verdana" font-size="12">id_dpt</text>
	<line x1="527" y1="180" x2="566" y2="180" stroke="#000000" stroke-width="1"/>
	<text x="527" y="194.8" fill="#000000" font-family="Verdana" font-size="12">nom_dpt</text>
</g>

<!-- Entity ETUDIANT -->
<g>
	<g>
		<rect x="127" y="337" width="116" height="25" fill="#c2a5cf" stroke="none" stroke-width="0" opacity="1"/>
		<rect x="127" y="362" width="116" height="127" fill="#e7d4e8" stroke="none" stroke-width="0" opacity="1"/>
		<rect x="127" y="337" width="116" height="152" fill="none" stroke="#9970ab" stroke-width="2" opacity="1"/>
		<line x1="127" y1="362" x2="243" y2="362" stroke="#9970ab" stroke-width="1"/>
	</g>
	<text x="153" y="354.75" fill="#000000" font-family="Verdana" font-size="12">ETUDIANT</text>
	<text x="132" y="379.8" fill="#000000" font-family="Verdana" font-size="12">id_etudiant</text>
	<line x1="132" y1="382" x2="201" y2="382" stroke="#000000" stroke-width="1"/>
	<text x="132" y="396.8" fill="#000000" font-family="Verdana" font-size="12">nom_etudiant</text>
	<text x="132" y="413.8" fill="#000000" font-family="Verdana" font-size="12">prenom_etudiant</text>
	<text x="132" y="430.8" fill="#000000" font-family="Verdana" font-size="12">demigr</text>
	<text x="132" y="447.8" fill="#000000" font-family="Verdana" font-size="12">tiers_temps</text>
	<text x="132" y="464.8" fill="#000000" font-family="Verdana" font-size="12">mob_reduite</text>
	<text x="132" y="481.8" fill="#000000" font-family="Verdana" font-size="12">premier_rang</text>
</g>

<!-- Entity DEVOIR -->
<g>
	<g>
		<rect x="288" y="354" width="92" height="25" fill="#c2a5cf" stroke="none" stroke-width="0" opacity="1"/>
		<rect x="288" y="379" width="92" height="93" fill="#e7d4e8" stroke="none" stroke-width="0" opacity="1"/>
		<rect x="288" y="354" width="92" height="118" fill="none" stroke="#9970ab" stroke-width="2" opacity="1"/>
		<line x1="288" y1="379" x2="380" y2="379" stroke="#9970ab" stroke-width="1"/>
	</g>
	<text x="310" y="371.75" fill="#000000" font-family="Verdana" font-size="12">DEVOIR</text>
	<text x="293" y="396.8" fill="#000000" font-family="Verdana" font-size="12">id_devoir</text>
	<line x1="293" y1="399" x2="350" y2="399" stroke="#000000" stroke-width="1"/>
	<text x="293" y="413.8" fill="#000000" font-family="Verdana" font-size="12">nom_devoir</text>
	<text x="293" y="430.8" fill="#000000" font-family="Verdana" font-size="12">date_devoir</text>
	<text x="293" y="447.8" fill="#000000" font-family="Verdana" font-size="12">heure_devoir</text>
	<text x="293" y="464.8" fill="#000000" font-family="Verdana" font-size="12">duree_devoir</text>
</g>

<!-- Entity ENSEIGNANT -->
<g>
	<g>
		<rect x="412" y="337" width="92" height="25" fill="#c2a5cf" stroke="none" stroke-width="0" opacity="1"/>
		<rect x="412" y="362" width="92" height="127" fill="#e7d4e8" stroke="none" stroke-width="0" opacity="1"/>
		<rect x="412" y="337" width="92" height="152" fill="none" stroke="#9970ab" stroke-width="2" opacity="1"/>
		<line x1="412" y1="362" x2="504" y2="362" stroke="#9970ab" stroke-width="1"/>
	</g>
	<text x="418" y="354.75" fill="#000000" font-family="Verdana" font-size="12">ENSEIGNANT</text>
	<text x="417" y="379.8" fill="#000000" font-family="Verdana" font-size="12">id_ens</text>
	<line x1="417" y1="382" x2="457" y2="382" stroke="#000000" stroke-width="1"/>
	<text x="417" y="396.8" fill="#000000" font-family="Verdana" font-size="12">nom_ens</text>
	<text x="417" y="413.8" fill="#000000" font-family="Verdana" font-size="12">prenom_ens</text>
	<text x="417" y="430.8" fill="#000000" font-family="Verdana" font-size="12">sexe</text>
	<text x="417" y="447.8" fill="#000000" font-family="Verdana" font-size="12">login</text>
	<text x="417" y="464.8" fill="#000000" font-family="Verdana" font-size="12">pass</text>
	<text x="417" y="481.8" fill="#000000" font-family="Verdana" font-size="12">admin</text>
</g>

<!-- Entity GROUPE -->
<g>
	<g>
		<rect x="12" y="597" width="88" height="25" fill="#c2a5cf" stroke="none" stroke-width="0" opacity="1"/>
		<rect x="12" y="622" width="88" height="43" fill="#e7d4e8" stroke="none" stroke-width="0" opacity="1"/>
		<rect x="12" y="597" width="88" height="68" fill="none" stroke="#9970ab" stroke-width="2" opacity="1"/>
		<line x1="12" y1="622" x2="100" y2="622" stroke="#9970ab" stroke-width="1"/>
	</g>
	<text x="30" y="614.75" fill="#000000" font-family="Verdana" font-size="12">GROUPE</text>
	<text x="17" y="639.8" fill="#000000" font-family="Verdana" font-size="12">id_groupe</text>
	<line x1="17" y1="642" x2="79" y2="642" stroke="#000000" stroke-width="1"/>
	<text x="17" y="656.8" fill="#000000" font-family="Verdana" font-size="12">nom_groupe</text>
</g>

<!-- Entity PROMOTION -->
<g>
	<g>
		<rect x="290" y="589" width="88" height="25" fill="#c2a5cf" stroke="none" stroke-width="0" opacity="1"/>
		<rect x="290" y="614" width="88" height="59" fill="#e7d4e8" stroke="none" stroke-width="0" opacity="1"/>
		<rect x="290" y="589" width="88" height="84" fill="none" stroke="#9970ab" stroke-width="2" opacity="1"/>
		<line x1="290" y1="614" x2="378" y2="614" stroke="#9970ab" stroke-width="1"/>
	</g>
	<text x="296" y="606.75" fill="#000000" font-family="Verdana" font-size="12">PROMOTION</text>
	<text x="295" y="631.8" fill="#000000" font-family="Verdana" font-size="12">id_promo</text>
	<line x1="295" y1="634" x2="353" y2="634" stroke="#000000" stroke-width="1"/>
	<text x="295" y="648.8" fill="#000000" font-family="Verdana" font-size="12">nom_promo</text>
	<text x="295" y="665.8" fill="#000000" font-family="Verdana" font-size="12">annee</text>
</g>

<!-- Entity MATIERE -->
<g>
	<g>
		<rect x="538" y="597" width="70" height="25" fill="#c2a5cf" stroke="none" stroke-width="0" opacity="1"/>
		<rect x="538" y="622" width="70" height="43" fill="#e7d4e8" stroke="none" stroke-width="0" opacity="1"/>
		<rect x="538" y="597" width="70" height="68" fill="none" stroke="#9970ab" stroke-width="2" opacity="1"/>
		<line x1="538" y1="622" x2="608" y2="622" stroke="#9970ab" stroke-width="1"/>
	</g>
	<text x="546" y="614.75" fill="#000000" font-family="Verdana" font-size="12">MATIERE</text>
	<text x="543" y="639.8" fill="#000000" font-family="Verdana" font-size="12">id_mat</text>
	<line x1="543" y1="642" x2="586" y2="642" stroke="#000000" stroke-width="1"/>
	<text x="543" y="656.8" fill="#000000" font-family="Verdana" font-size="12">nom_mat</text>
</g>
</svg>